# xmcd
#
# Track frame offsets: 
#        150
#        32806
#        48535
#        62497
#        74128
#        91498
#        108460
#        125809
#        148726
#        165649
#        194718
#        211878
#        229073
#        247230
#
# Disc length: 3635 seconds
#
# Revision: 2
# Processed by: cddbd v1.5.2PL0 Copyright (c) Steve Scherf et al.
# Submitted via: ExactAudioCopy v1.0b6
#
DISCID=e10e310e
DTITLE=Various Artist - 23. Blues Baltica Bluesfest 2012
DYEAR=2012
DGENRE=Blues Sampler
TTITLE0=German Blues Project - CEO Blues
TTITLE1=Tim Lothat and Peter Nande - Slow Train
TTITLE2=Sweet Felicia and The Honeytones - Please Don't Tell 'Em
TTITLE3=Jan Gerfast Blues Band - Wine Women And Blues
TTITLE4=Igor Prado Band - Slow Down Little Eva
TTITLE5=Shawn Pittman and The Bluestars - One Of These Days
TTITLE6=Biber Hermann - Lady Luck
TTITLE7=Michael Van Merwyk and Bluesoul - Road To Run
TTITLE8=Soulmate - Smile At Me
TTITLE9=Colin Linden Band - Big Mouth
TTITLE10=Coolöish and Kielak - Come To Me Baby
TTITLE11=Roland Tchakounte - Yingue
TTITLE12=Frank Morey And His Band - Got To Move
TTITLE13=Cee Cee James And Band - I Got A Right To Sing The Blues
EXTD=
EXTT0=
EXTT1=
EXTT2=
EXTT3=
EXTT4=
EXTT5=
EXTT6=
EXTT7=
EXTT8=
EXTT9=
EXTT10=
EXTT11=
EXTT12=
EXTT13=
PLAYORDER=
